<svg viewBox="0 0 30 30" fill="none" xmlns="http://www.w3.org/2000/svg" xmlns:xlink="http://www.w3.org/1999/xlink">
	<defs>
		<clipPath id="clip3600_45298">
			<rect id="Icon/light/User" rx="0.000000" width="29.000000" height="29.000000" transform="translate(0.500000 0.500000)" fill="white" fill-opacity="0"/>
		</clipPath>
	</defs>
	<rect id="Icon/light/User" rx="0.000000" width="29.000000" height="29.000000" transform="translate(0.500000 0.500000)" fill="#FFFFFF" fill-opacity="0"/>
	<g clip-path="url(#clip3600_45298)">
		<path id="&lt;Path&gt;" d="M15.23 14.77C12.31 14.77 9.95 12.41 9.95 9.49C9.95 6.58 12.31 4.21 15.23 4.21C18.14 4.21 20.51 6.58 20.51 9.49C20.51 12.41 18.14 14.77 15.23 14.77Z" stroke="white" stroke-opacity="1.000000" stroke-width="1.500000" stroke-linejoin="round"/>
		<path id="&lt;Path&gt;" d="M7.25 18.8C6.62 19.12 6.09 19.61 5.72 20.22C5.35 20.82 5.15 21.52 5.15 22.23L5.15 22.93C5.15 23.31 5.3 23.68 5.57 23.95C5.84 24.22 6.21 24.37 6.59 24.37L23.87 24.37C24.25 24.37 24.62 24.22 24.89 23.95C25.16 23.68 25.31 23.31 25.31 22.93L25.31 22.23C25.31 21.52 25.11 20.82 24.74 20.22C24.37 19.61 23.84 19.12 23.21 18.8C20.75 17.49 18.02 16.77 15.23 16.69C12.44 16.77 9.71 17.49 7.25 18.8Z" stroke="white" stroke-opacity="1.000000" stroke-width="1.500000" stroke-linejoin="round"/>
	</g>
</svg>
