<svg viewBox="0 0 989.408 998.154" fill="none" xmlns="http://www.w3.org/2000/svg" xmlns:xlink="http://www.w3.org/1999/xlink">
	<defs>
		<linearGradient x1="-0.000031" y1="1000.530334" x2="585.934631" y2="497.226013" id="paint_linear_14_33_0" gradientUnits="userSpaceOnUse">
			<stop stop-color="#D95DB0"/>
			<stop offset="1.000000" stop-color="#3344DC"/>
		</linearGradient>
		<linearGradient x1="0.000122" y1="1000.530640" x2="585.934692" y2="497.226196" id="paint_linear_14_32_0" gradientUnits="userSpaceOnUse">
			<stop stop-color="#D95DB0"/>
			<stop offset="1.000000" stop-color="#3344DC"/>
		</linearGradient>
		<linearGradient x1="0.000061" y1="1000.530334" x2="585.934814" y2="497.225891" id="paint_linear_14_31_0" gradientUnits="userSpaceOnUse">
			<stop stop-color="#D95DB0"/>
			<stop offset="1.000000" stop-color="#3344DC"/>
		</linearGradient>
		<linearGradient x1="0.000549" y1="1000.531311" x2="585.934448" y2="497.225891" id="paint_linear_14_30_0" gradientUnits="userSpaceOnUse">
			<stop stop-color="#D95DB0"/>
			<stop offset="1.000000" stop-color="#3344DC"/>
		</linearGradient>
		<linearGradient x1="0.000916" y1="1000.531067" x2="585.934753" y2="497.225891" id="paint_linear_14_29_0" gradientUnits="userSpaceOnUse">
			<stop stop-color="#D95DB0"/>
			<stop offset="1.000000" stop-color="#3344DC"/>
		</linearGradient>
		<linearGradient x1="0.000000" y1="1000.530334" x2="585.934692" y2="497.226013" id="paint_linear_14_28_0" gradientUnits="userSpaceOnUse">
			<stop stop-color="#D95DB0"/>
			<stop offset="1.000000" stop-color="#3344DC"/>
		</linearGradient>
		<linearGradient x1="0.000275" y1="1000.530823" x2="585.934692" y2="497.225891" id="paint_linear_14_27_0" gradientUnits="userSpaceOnUse">
			<stop stop-color="#D95DB0"/>
			<stop offset="1.000000" stop-color="#3344DC"/>
		</linearGradient>
		<linearGradient x1="-0.000122" y1="1000.530579" x2="585.934204" y2="497.225769" id="paint_linear_14_26_0" gradientUnits="userSpaceOnUse">
			<stop stop-color="#D95DB0"/>
			<stop offset="1.000000" stop-color="#3344DC"/>
		</linearGradient>
		<linearGradient x1="-0.000122" y1="1000.530640" x2="585.934509" y2="497.226440" id="paint_linear_14_25_0" gradientUnits="userSpaceOnUse">
			<stop stop-color="#D95DB0"/>
			<stop offset="1.000000" stop-color="#3344DC"/>
		</linearGradient>
		<linearGradient x1="0.000336" y1="1000.530151" x2="585.935059" y2="497.225708" id="paint_linear_14_24_0" gradientUnits="userSpaceOnUse">
			<stop stop-color="#D95DB0"/>
			<stop offset="1.000000" stop-color="#3344DC"/>
		</linearGradient>
		<linearGradient x1="0.000702" y1="1000.530701" x2="585.934937" y2="497.225891" id="paint_linear_14_23_0" gradientUnits="userSpaceOnUse">
			<stop stop-color="#D95DB0"/>
			<stop offset="1.000000" stop-color="#3344DC"/>
		</linearGradient>
		<linearGradient x1="-0.000061" y1="1000.530518" x2="585.934265" y2="497.226440" id="paint_linear_14_22_0" gradientUnits="userSpaceOnUse">
			<stop stop-color="#D95DB0"/>
			<stop offset="1.000000" stop-color="#3344DC"/>
		</linearGradient>
	</defs>
	<path id="Vector" d="M56.23 150.43C77.82 151.56 98.98 144.08 115.14 129.59C135.61 108.94 146.54 89 148.63 68.59C150.1 59.38 149.39 49.94 146.56 41.06C143.75 32.17 138.87 24.09 132.35 17.47C125.84 10.85 117.86 5.87 109.07 2.96C100.29 0.04 90.94 -0.74 81.81 0.69C36.66 5.05 -1.39 48.5 0.22 93.49C0.47 108.44 6.43 122.72 16.87 133.33C27.31 143.95 41.42 150.07 56.23 150.43Z" fill="url(#paint_linear_14_33_0)" fill-opacity="1.000000" fill-rule="nonzero"/>
	<path id="Vector" d="M7.21 333.84L7.21 331.43C7.19 326.2 7.18 320.94 7.17 315.65C7.1 292.06 7.04 267.97 7.23 244.26C7.35 234.26 9.38 227.27 13.59 223.03C17.8 218.78 24.39 216.76 33.94 216.22C137.67 210.5 208.39 139.08 214.21 34.32C215.26 14.72 222.57 7.7 242.15 7.52C271.87 7.22 302.27 7.31 330.89 7.46C343.01 7.64 351.36 10.05 355.76 14.48C360.14 18.91 362.05 26.85 361.72 38.57C359.04 126.49 326.06 203.67 263.81 267.98C201.17 329.08 125.68 361.84 39.7 364.88C27.11 365.36 18.81 363.26 14.16 358.92C9.5 354.58 7.27 346.36 7.21 333.84Z" fill="url(#paint_linear_14_32_0)" fill-opacity="1.000000" fill-rule="nonzero"/>
	<path id="Vector" d="M344.78 461.57C302.21 437.84 257.55 418.14 211.38 402.73L210.6 402.49C200.78 399.09 198.85 397.73 198.34 393.91C198.12 392.62 198.24 391.29 198.68 390.06C199.12 388.82 199.87 387.72 200.84 386.86C203.32 384.59 206.09 382.69 209.08 381.2C237.99 365.79 264.95 346.91 289.35 324.95C372.14 249.14 416.21 153.41 420.33 40.49C421.28 13.88 427.58 7.76 453.93 7.67C475.44 7.65 496.94 7.65 518.45 7.67L534.35 7.64C548.46 7.67 557.69 10.11 562.04 14.69C566.4 19.27 568.31 27.94 567.86 41.22C562.88 186.99 510.36 310.62 407.26 419.17C403.74 422.24 399.92 425.5 395.86 428.93C394.55 430.05 393.22 431.19 391.87 432.35C381.75 441.02 370.6 450.57 359.57 460.42C354.62 464.82 351.82 465.6 344.78 461.57Z" fill="url(#paint_linear_14_31_0)" fill-opacity="1.000000" fill-rule="nonzero"/>
	<path id="Vector" d="M779.82 596.68C787.17 599.21 790.24 602.31 790.63 604.27C790.99 606.01 789.56 609.74 784.34 614.59C779.18 617.81 773.73 621.01 768.22 624.23C754.39 632.04 741.03 640.68 728.2 650.09C626.74 728.14 572.96 832.63 568.52 960.63C567.71 983.84 560.49 990.95 537.57 991.01L531.6 991.01C504.98 991.07 477.47 991.13 450.44 990.95C439.36 990.86 431.19 988.15 426.92 983.66C422.66 979.18 420.66 971.8 420.99 961.71C426.06 811.22 479.6 683.79 580.43 582.04C594.53 567.81 609.55 554.1 625.48 540.91C633.84 533.99 638.41 533.59 647.78 538.95C689.88 562.38 734.1 581.71 779.82 596.68Z" fill="url(#paint_linear_14_30_0)" fill-opacity="1.000000" fill-rule="nonzero"/>
	<path id="Vector" d="M532.08 361.93L538.27 369.49C550.61 385.22 563.74 400.31 577.62 414.68C682.19 516.04 807.97 569.43 951.47 573.43C962.54 573.7 970.13 571.71 974.69 567.23L974.87 567.05C979.41 562.47 981.64 554.67 981.71 543.23L981.73 542.42C981.85 512.79 981.91 482.01 981.73 452.08C981.46 433.75 973.08 425.28 954.61 424.71C836.02 421.58 736.77 374.07 659.51 283.52C641.06 261.37 625.03 237.29 611.7 211.68C606.41 201.83 603.17 200.17 598.9 200.51C594.63 200.84 593.7 202.91 590.33 213C574.76 260.2 554.99 305.88 531.27 349.49C527.99 355.46 528.63 357.65 532.08 361.93Z" fill="url(#paint_linear_14_29_0)" fill-opacity="1.000000" fill-rule="nonzero"/>
	<path id="Vector" d="M36.03 425.25C205.47 430.98 345.46 499.96 452.11 630.22C459.87 639.74 460.35 644.91 454.5 655.27C432.2 695.73 413.84 738.26 399.65 782.28L398.6 785.56C395.17 796.37 393.77 797.61 389.87 797.88C384.07 798.36 381.57 795.17 375.51 783.7C357.12 748.89 333.64 717.07 305.86 689.33C231.85 616.16 142.09 577.38 39.05 574.09C13.71 573.28 7.17 566.57 7.17 541.33L7.14 519.5C7.09 498.04 7.1 476.57 7.17 455.09C7.23 444.07 9.59 436.09 14.19 431.46L14.43 431.22C18.87 426.91 26.12 424.89 36.03 425.25Z" fill="url(#paint_linear_14_28_0)" fill-opacity="1.000000" fill-rule="nonzero"/>
	<path id="Vector" d="M982.1 687.19C982.06 677.59 982.05 667.99 982.06 658.37C982.21 654.9 981.64 651.44 980.4 648.2C979.14 644.96 977.24 642.01 974.81 639.56C969.98 635.04 963.42 632.99 953.27 633.17C869.71 633.17 786.34 669.49 724.72 731.66C662.94 793.99 627.48 877.94 627.67 962.07C627.64 982.94 635.4 990.77 656.23 990.89C687.71 991.16 718.69 991.1 748.29 990.8C766.49 990.5 774.12 983.27 775.2 964.66C781.29 858.79 850.7 788.82 956.28 781.95C974.03 780.84 981.77 773.16 981.89 756.11C982.16 733.38 982.27 710.07 982.1 687.19Z" fill="url(#paint_linear_14_27_0)" fill-opacity="1.000000" fill-rule="nonzero"/>
	<path id="Vector" d="M627.58 38.18C629.93 113.6 653.75 180.39 698.24 236.55C763.83 319.29 850.46 362.56 955.77 365.18C959.28 365.79 962.89 365.56 966.3 364.5C969.71 363.44 972.82 361.58 975.39 359.07C977.95 356.57 979.89 353.49 981.05 350.09C982.21 346.69 982.56 343.06 982.06 339.5C982.51 305.68 982.51 272.8 982.03 241.67C981.77 225.02 973.97 216.86 958.1 216.74C909.48 216.31 862.98 196.58 828.67 161.81C794.36 127.04 775 80.04 774.78 30.98C774.78 12.13 761.86 7.88 751.12 7.76C731.16 7.39 710.93 7.4 690.95 7.4L690.93 7.4L690.92 7.4L690.91 7.4C685.21 7.41 679.54 7.41 673.89 7.4L650.55 7.52C647.48 7.48 644.42 8.06 641.57 9.25C638.72 10.43 636.14 12.19 634 14.42C628.98 19.78 627.07 26.64 627.58 38.18Z" fill="url(#paint_linear_14_26_0)" fill-opacity="1.000000" fill-rule="nonzero"/>
	<path id="Vector" d="M355.63 984.05C351.03 988.75 343.25 991.01 331.31 991.01C302.97 991.13 272.76 991.25 242.56 990.71C222.28 990.71 215.2 983.75 214.13 962.8C208.78 860.03 136.54 787.31 34.39 781.98C14.49 780.99 7.38 773.82 7.18 754.52C6.88 724.71 7 694.48 7.23 661.78C7.38 651.45 9.23 644.46 13.8 639.86C18.37 635.25 25.59 633.26 36.12 633.29C121.97 633.44 206.7 673.34 281.3 748.62C329.67 798.81 358.85 875.53 361.6 959.3C362.14 971.47 360.23 979.36 355.63 984.05Z" fill="url(#paint_linear_14_25_0)" fill-opacity="1.000000" fill-rule="nonzero"/>
	<path id="Vector" d="M965.98 138.75C941.59 157.87 900.81 153.38 873.14 128.42C846.25 104.18 835.99 75.69 841.77 41.43L841.9 40.65L842.37 39.62C855.51 10.05 877.23 2.04 893.11 0.48C921.49 -2.26 953.81 13.79 971.74 39.53C997.25 76.12 994.95 115.95 965.98 138.75Z" fill="url(#paint_linear_14_24_0)" fill-opacity="1.000000" fill-rule="nonzero"/>
	<path id="Vector" d="M873.14 869.63C848.95 894.05 838.02 919.41 840.32 944.91C841.46 958.81 847.52 971.84 857.41 981.58C867.31 991.33 880.35 997.15 894.15 997.97C906.7 998.27 919.18 995.98 930.82 991.25C942.47 986.52 953.04 979.44 961.87 970.45C970.71 961.46 977.66 950.75 982.25 938.96C986.85 927.18 989.03 914.57 988.62 901.91C987.74 888 981.86 874.89 972.09 865.03C962.32 855.17 949.33 849.24 935.54 848.34C924.24 847.29 912.85 848.64 902.1 852.31C891.35 855.97 881.48 861.88 873.14 869.63Z" fill="url(#paint_linear_14_23_0)" fill-opacity="1.000000" fill-rule="nonzero"/>
	<path id="Vector" d="M110.42 994.7C102.22 997.59 93.51 998.68 84.86 997.91C42.83 995.56 4.22 957.86 0.49 915.85C-0.67 906.68 0.21 897.36 3.07 888.58C5.92 879.79 10.68 871.76 16.99 865.06L17.71 864.33C24.57 857.93 32.78 853.19 41.72 850.46C50.67 847.74 60.11 847.11 69.33 848.62C89.71 851.24 106.96 860.51 125.08 878.79C139.04 893.41 147.43 912.55 148.77 932.81C149.66 941.51 148.69 950.3 145.92 958.59C143.14 966.87 138.62 974.46 132.69 980.83L132.39 981.13C126.11 987.18 118.61 991.81 110.42 994.7Z" fill="url(#paint_linear_14_22_0)" fill-opacity="1.000000" fill-rule="nonzero"/>
</svg>
