<svg viewBox="0 0 335.043 63.1665" fill="none" xmlns="http://www.w3.org/2000/svg" xmlns:xlink="http://www.w3.org/1999/xlink">
	<defs/>
	<path id="Vector" d="M114.64 61.85L123.5 61.85L123.5 0L114.64 0L114.64 61.85Z" fill="#FFFFFF" fill-opacity="1.000000" fill-rule="nonzero"/>
	<path id="Vector" d="M97.78 51.68C95.66 54.05 92.07 55.1 88.05 55.1C82.12 55.1 77.51 52.82 75.75 48.09C75.16 46.69 74.87 45.2 74.73 43.36L109.13 43.36C109.13 38.19 108.54 34.16 107.23 30.31C104.22 22.34 97.34 17.52 87.46 17.52C77.73 17.52 70.48 21.99 67.48 30.13C66.38 33.11 65.79 36.35 65.79 40.38C65.79 44.24 66.31 47.57 67.48 50.46C70.48 58.61 77.87 63.16 87.97 63.16C94.64 63.16 100.56 61.32 104.52 57.03C106.22 55.17 107.45 53.01 108.21 50.45L98.75 50.45C98.46 50.9 98.14 51.31 97.78 51.68ZM87.46 25.66C93.1 25.66 97.49 27.77 99.32 32.59C99.69 33.64 99.98 34.6 100.13 35.83L74.87 35.83C75.02 34.78 75.31 33.81 75.68 32.85C77.51 27.94 81.68 25.66 87.46 25.66Z" fill="#FFFFFF" fill-opacity="1.000000" fill-rule="evenodd"/>
	<path id="Vector" d="M167 56.85C163.12 60.97 157.48 63.16 150.6 63.16C141.23 63.16 133.99 58.87 130.91 50.63C129.81 47.65 129.23 44.24 129.23 40.3C129.23 36.44 129.81 32.94 130.91 30.04C133.99 21.99 141.09 17.52 150.6 17.52C157.48 17.52 163.05 19.62 166.92 23.91C169.78 26.89 171.32 30.83 171.54 35.56L162.09 35.56C161.87 33.02 161 31.01 159.68 29.52C157.63 27.33 154.33 26.37 150.67 26.37C145.33 26.37 141.31 28.82 139.55 33.29C138.89 35.3 138.52 37.4 138.52 40.3C138.52 43.1 138.89 45.29 139.55 47.22C141.31 51.68 145.33 54.14 150.67 54.14C154.33 54.14 157.7 53.17 159.68 50.9C161.14 49.41 162.02 47.3 162.09 44.85L171.68 44.85C171.39 49.67 169.85 53.7 167 56.85Z" fill="#FFFFFF" fill-opacity="1.000000" fill-rule="nonzero"/>
	<path id="Vector" d="M198.41 63.07C208.66 63.07 215.69 58.34 218.69 50.37C219.79 47.39 220.37 44.06 220.37 40.3C220.37 36.62 219.79 33.29 218.69 30.31C215.69 22.34 208.66 17.52 198.41 17.52C188.24 17.52 181.21 22.34 178.14 30.48C177.04 33.37 176.53 36.7 176.53 40.3C176.53 43.97 177.04 47.22 178.14 50.2C181.21 58.26 188.24 63.07 198.41 63.07ZM198.41 54.31C192.85 54.31 188.6 51.77 186.77 47.04C186.12 45.11 185.75 42.92 185.75 40.3C185.75 37.75 186.12 35.48 186.77 33.64C188.6 28.91 192.85 26.37 198.41 26.37C203.98 26.37 208.29 28.82 210.12 33.64C210.78 35.48 211.08 37.75 211.08 40.3C211.08 42.92 210.78 45.11 210.12 47.04C208.29 51.77 203.98 54.31 198.41 54.31Z" fill="#FFFFFF" fill-opacity="1.000000" fill-rule="evenodd"/>
	<path id="Vector" d="M313.96 55.1C317.98 55.1 321.57 54.05 323.69 51.68C324.05 51.31 324.37 50.9 324.65 50.45L334.12 50.45C333.36 53.01 332.13 55.17 330.43 57.03C326.47 61.32 320.54 63.16 313.88 63.16C303.78 63.16 296.39 58.61 293.39 50.46C292.22 47.57 291.7 44.24 291.7 40.38C291.7 36.35 292.29 33.11 293.39 30.13C296.39 21.99 303.64 17.52 313.37 17.52C323.25 17.52 330.13 22.34 333.14 30.31C334.45 34.16 335.04 38.19 335.04 43.36L300.64 43.36C300.78 45.2 301.07 46.69 301.66 48.09C303.41 52.82 308.03 55.1 313.96 55.1ZM325.23 32.59C323.4 27.77 319.01 25.66 313.37 25.66C307.59 25.66 303.41 27.94 301.58 32.85C301.22 33.81 300.93 34.78 300.78 35.83L326.03 35.83C325.89 34.6 325.59 33.64 325.23 32.59Z" fill="#FFFFFF" fill-opacity="1.000000" fill-rule="evenodd"/>
	<path id="Vector" d="M243.27 17.61C233.71 17.61 225.96 26.99 225.96 38.55L225.96 61.88L235 61.88L235 36.23C235 30.71 238.7 26.41 243.27 26.41C247.83 26.41 251.52 30.71 251.52 36.23L251.52 61.88L260.57 61.88L260.57 36.23C260.57 30.71 264.27 26.41 268.83 26.41C273.39 26.41 277.09 30.71 277.09 36.23L277.09 61.88L286.14 61.88L286.14 38.55C286.14 26.99 278.39 17.61 268.83 17.61C263.77 17.61 259.21 20.24 256.05 24.43C252.88 20.24 248.33 17.61 243.27 17.61Z" fill="#FFFFFF" fill-opacity="1.000000" fill-rule="nonzero"/>
	<path id="Vector" d="M45.6 49.6L54.94 18.78L64.43 18.78L50.09 61.77L41.11 61.77L32.21 31.65L23.31 61.77L14.33 61.77L0 18.78L9.48 18.78L18.82 49.69L27.72 18.78L36.63 18.78L45.6 49.6Z" fill="#FFFFFF" fill-opacity="1.000000" fill-rule="nonzero"/>
</svg>
